<svg width="39" height="33" viewBox="0 0 39 33" fill="none" xmlns="http://www.w3.org/2000/svg">
<g filter="url(#filter0_d_212_67)">
<g filter="url(#filter1_ii_212_67)">
<path fill-rule="evenodd" clip-rule="evenodd" d="M19.02 25C23.4273 25 27 21.4272 27 17.02C27 12.6128 23.4273 9.03999 19.02 9.03999C14.6128 9.03999 11.04 12.6128 11.04 17.02C11.04 21.4272 14.6128 25 19.02 25ZM23.691 14.1309C24.183 13.6388 24.183 12.8411 23.691 12.349C23.1989 11.8569 22.4011 11.8569 21.909 12.349L17.709 16.549C17.217 17.0411 17.217 17.8388 17.709 18.3309C18.2011 18.823 18.9989 18.823 19.491 18.3309L23.691 14.1309Z" fill="#FDFBF7"/>
</g>
<circle cx="7.26" cy="17.02" r="1.26" fill="#5978E8"/>
<circle cx="30.78" cy="17.02" r="1.26" fill="#5978E8"/>
<circle cx="27.4199" cy="8.61999" r="1.26" fill="#5978E8"/>
<circle cx="10.6201" cy="8.61999" r="1.26" fill="#5978E8"/>
<circle cx="19.02" cy="5.26" r="1.26" fill="#5978E8"/>
</g>
<defs>
<filter id="filter0_d_212_67" x="0" y="0" width="38.04" height="33" filterUnits="userSpaceOnUse" color-interpolation-filters="sRGB">
<feFlood flood-opacity="0" result="BackgroundImageFix"/>
<feColorMatrix in="SourceAlpha" type="matrix" values="0 0 0 0 0 0 0 0 0 0 0 0 0 0 0 0 0 0 127 0" result="hardAlpha"/>
<feOffset dy="2"/>
<feGaussianBlur stdDeviation="3"/>
<feColorMatrix type="matrix" values="0 0 0 0 1 0 0 0 0 1 0 0 0 0 1 0 0 0 0.15 0"/>
<feBlend mode="normal" in2="BackgroundImageFix" result="effect1_dropShadow_212_67"/>
<feBlend mode="normal" in="SourceGraphic" in2="effect1_dropShadow_212_67" result="shape"/>
</filter>
<filter id="filter1_ii_212_67" x="11.04" y="9.03999" width="16.76" height="16.16" filterUnits="userSpaceOnUse" color-interpolation-filters="sRGB">
<feFlood flood-opacity="0" result="BackgroundImageFix"/>
<feBlend mode="normal" in="SourceGraphic" in2="BackgroundImageFix" result="shape"/>
<feColorMatrix in="SourceAlpha" type="matrix" values="0 0 0 0 0 0 0 0 0 0 0 0 0 0 0 0 0 0 127 0" result="hardAlpha"/>
<feOffset dx="1"/>
<feGaussianBlur stdDeviation="0.4"/>
<feComposite in2="hardAlpha" operator="arithmetic" k2="-1" k3="1"/>
<feColorMatrix type="matrix" values="0 0 0 0 0 0 0 0 0 0 0 0 0 0 0 0 0 0 0.7 0"/>
<feBlend mode="normal" in2="shape" result="effect1_innerShadow_212_67"/>
<feColorMatrix in="SourceAlpha" type="matrix" values="0 0 0 0 0 0 0 0 0 0 0 0 0 0 0 0 0 0 127 0" result="hardAlpha"/>
<feOffset dy="0.2"/>
<feGaussianBlur stdDeviation="0.25"/>
<feComposite in2="hardAlpha" operator="arithmetic" k2="-1" k3="1"/>
<feColorMatrix type="matrix" values="0 0 0 0 0.768627 0 0 0 0 0.768627 0 0 0 0 0.768627 0 0 0 1 0"/>
<feBlend mode="normal" in2="effect1_innerShadow_212_67" result="effect2_innerShadow_212_67"/>
</filter>
</defs>
</svg>
