<svg width="16" height="16" viewBox="0 0 16 16" fill="none" xmlns="http://www.w3.org/2000/svg">
<g filter="url(#filter0_ii_212_69)">
<path fill-rule="evenodd" clip-rule="evenodd" d="M8.02004 16C12.4273 16 16 12.4272 16 8.01999C16 3.61276 12.4273 0.0399933 8.02004 0.0399933C3.61281 0.0399933 0.0400391 3.61276 0.0400391 8.01999C0.0400391 12.4272 3.61281 16 8.02004 16ZM12.691 5.13091C13.183 4.63885 13.183 3.84106 12.691 3.349C12.1989 2.85694 11.4011 2.85694 10.909 3.349L6.70905 7.549C6.21698 8.04106 6.21698 8.83885 6.70905 9.33091C7.20111 9.82297 7.99889 9.82297 8.49095 9.33091L12.691 5.13091Z" fill="#FDFBF7"/>
</g>
<defs>
<filter id="filter0_ii_212_69" x="0.0400391" y="0.0399933" width="16.76" height="16.16" filterUnits="userSpaceOnUse" color-interpolation-filters="sRGB">
<feFlood flood-opacity="0" result="BackgroundImageFix"/>
<feBlend mode="normal" in="SourceGraphic" in2="BackgroundImageFix" result="shape"/>
<feColorMatrix in="SourceAlpha" type="matrix" values="0 0 0 0 0 0 0 0 0 0 0 0 0 0 0 0 0 0 127 0" result="hardAlpha"/>
<feOffset dx="1"/>
<feGaussianBlur stdDeviation="0.4"/>
<feComposite in2="hardAlpha" operator="arithmetic" k2="-1" k3="1"/>
<feColorMatrix type="matrix" values="0 0 0 0 0 0 0 0 0 0 0 0 0 0 0 0 0 0 0.7 0"/>
<feBlend mode="normal" in2="shape" result="effect1_innerShadow_212_69"/>
<feColorMatrix in="SourceAlpha" type="matrix" values="0 0 0 0 0 0 0 0 0 0 0 0 0 0 0 0 0 0 127 0" result="hardAlpha"/>
<feOffset dy="0.2"/>
<feGaussianBlur stdDeviation="0.25"/>
<feComposite in2="hardAlpha" operator="arithmetic" k2="-1" k3="1"/>
<feColorMatrix type="matrix" values="0 0 0 0 0.768627 0 0 0 0 0.768627 0 0 0 0 0.768627 0 0 0 1 0"/>
<feBlend mode="normal" in2="effect1_innerShadow_212_69" result="effect2_innerShadow_212_69"/>
</filter>
</defs>
</svg>
