<svg width="28" height="31" viewBox="0 0 28 31" fill="none" xmlns="http://www.w3.org/2000/svg">
<path fill-rule="evenodd" clip-rule="evenodd" d="M25.3379 4.8126C25.4098 4.91444 25.4748 5.0211 25.5326 5.13191C25.9282 5.89041 25.9553 6.78814 25.6062 7.56912L25.5741 7.64085C25.418 7.98997 25.1958 8.30556 24.9198 8.57021L21.0429 12.2871C20.6574 12.6567 20.0931 12.7705 19.5945 12.5793L19.5533 12.5635C19.2274 12.4385 18.9668 12.1854 18.8324 11.8632C18.6293 11.3766 18.7464 10.8153 19.127 10.4504L21.6156 8.06449H13.8429V8.06351C12.7023 8.12199 11.5738 8.3631 10.5055 8.78249C8.62912 9.51912 7.0227 10.7727 5.88939 12.3846C4.75609 13.9965 4.14681 15.8944 4.1386 17.8383C4.13039 19.7822 4.72362 21.6848 5.84327 23.3055C6.96292 24.9262 8.5587 26.1921 10.4288 26.9433C12.2989 27.6945 14.3594 27.8971 16.3496 27.5256C18.3399 27.1541 20.1705 26.2251 21.6101 24.8561C22.6329 23.8834 23.4257 22.7196 23.9437 21.444C24.2956 20.5774 25.1733 19.978 26.0914 20.1568C27.031 20.3398 27.6489 21.2631 27.3243 22.1636C26.6434 24.0523 25.5187 25.7746 24.0275 27.1926C22.106 29.02 19.6624 30.2601 17.0057 30.756C14.349 31.2519 11.5987 30.9814 9.10234 29.9787C6.60602 28.976 4.4759 27.2862 2.98135 25.1228C1.48679 22.9595 0.694925 20.4198 0.705883 17.825C0.716843 15.2302 1.53013 12.6968 3.04291 10.5451C4.55569 8.39344 6.70002 6.72017 9.20472 5.73688C10.9365 5.05702 12.7868 4.72813 14.6406 4.76062C14.6615 4.7591 14.6827 4.75832 14.704 4.75832H21.7798L19.127 2.21509C18.7464 1.8502 18.6293 1.28883 18.8324 0.802215C18.9668 0.480003 19.2274 0.22692 19.5533 0.101909L19.5847 0.089874C20.0869 -0.102723 20.6555 0.0200043 21.0336 0.402606L25.0417 4.45869C25.1344 4.55252 25.2202 4.65267 25.2986 4.75832H25.3379V4.8126Z" fill="#FDFBF7"/>
<path d="M11.0146 22.2907C10.4842 22.2907 10.0226 22.208 9.62996 22.0427C9.24419 21.8773 8.9273 21.65 8.6793 21.3607L9.4853 20.2447C9.68507 20.4307 9.89863 20.5822 10.126 20.6993C10.3602 20.8096 10.5944 20.8647 10.8286 20.8647C11.118 20.8647 11.3487 20.813 11.521 20.7097C11.6932 20.6063 11.7793 20.4513 11.7793 20.2447C11.7793 20.0793 11.738 19.9381 11.6553 19.821C11.5726 19.7039 11.4142 19.6143 11.18 19.5523C10.9526 19.4903 10.6082 19.4593 10.1466 19.4593V18.2193C10.6977 18.2193 11.0732 18.1539 11.273 18.023C11.4727 17.8852 11.5726 17.7027 11.5726 17.4753C11.5726 17.0758 11.3453 16.876 10.8906 16.876C10.6771 16.876 10.4807 16.9208 10.3016 17.0103C10.1294 17.0999 9.93996 17.2342 9.7333 17.4133L8.84463 16.3387C9.16841 16.07 9.50252 15.8633 9.84696 15.7187C10.1983 15.5671 10.5737 15.4913 10.9733 15.4913C11.6966 15.4913 12.2719 15.6532 12.699 15.977C13.133 16.2939 13.35 16.7486 13.35 17.341C13.35 17.9748 12.9986 18.4467 12.296 18.7567V18.798C12.668 18.9082 12.9711 19.0942 13.2053 19.356C13.4395 19.6178 13.5566 19.9553 13.5566 20.3687C13.5566 20.782 13.4395 21.1333 13.2053 21.4227C12.9711 21.7051 12.6611 21.9221 12.2753 22.0737C11.8895 22.2183 11.4693 22.2907 11.0146 22.2907ZM16.843 22.2907C16.1197 22.2907 15.5307 22.0013 15.076 21.4227C14.6283 20.8371 14.4044 19.9829 14.4044 18.86C14.4044 17.7371 14.6283 16.8967 15.076 16.3387C15.5307 15.7738 16.1197 15.4913 16.843 15.4913C17.5664 15.4913 18.1519 15.7738 18.5997 16.3387C19.0544 16.9036 19.2817 17.744 19.2817 18.86C19.2817 19.9829 19.0544 20.8371 18.5997 21.4227C18.1519 22.0013 17.5664 22.2907 16.843 22.2907ZM16.843 20.9267C16.9808 20.9267 17.1083 20.875 17.2254 20.7717C17.3425 20.6683 17.4355 20.4686 17.5044 20.1723C17.5733 19.8761 17.6077 19.4387 17.6077 18.86C17.6077 18.2813 17.5733 17.8508 17.5044 17.5683C17.4355 17.279 17.3425 17.0896 17.2254 17C17.1083 16.9036 16.9808 16.8553 16.843 16.8553C16.7053 16.8553 16.5778 16.9036 16.4607 17C16.3436 17.0896 16.2506 17.279 16.1817 17.5683C16.1128 17.8508 16.0784 18.2813 16.0784 18.86C16.0784 19.4387 16.1128 19.8761 16.1817 20.1723C16.2506 20.4686 16.3436 20.6683 16.4607 20.7717C16.5778 20.875 16.7053 20.9267 16.843 20.9267Z" fill="#FDFBF7"/>
</svg>
